<svg width="15" height="9" viewBox="0 0 15 9" fill="none" xmlns="http://www.w3.org/2000/svg">
    <path d="M2.21191 0.377194L7.22357 5.38886L12.2352 0.377194C12.3548 0.257609 12.4968 0.162749 12.653 0.0980302C12.8093 0.0333113 12.9767 1.26003e-09 13.1459 0C13.315 -1.26003e-09 13.4824 0.0333113 13.6387 0.0980302C13.7949 0.162749 13.9369 0.257609 14.0565 0.377194C14.1761 0.496779 14.2709 0.638747 14.3357 0.794992C14.4004 0.951237 14.4337 1.1187 14.4337 1.28782C14.4337 1.45694 14.4004 1.6244 14.3357 1.78065C14.2709 1.93689 14.1761 2.07886 14.0565 2.19844L8.12774 8.12719C8.00824 8.24694 7.8663 8.34193 7.71005 8.40675C7.55379 8.47157 7.38628 8.50493 7.21712 8.50493C7.04795 8.50493 6.88044 8.47157 6.72418 8.40675C6.56793 8.34193 6.42599 8.24694 6.30649 8.12719L0.37774 2.19844C0.257998 2.07895 0.162999 1.93701 0.0981811 1.78075C0.0333634 1.62449 0 1.45699 0 1.28782C0 1.11865 0.0333634 0.951144 0.0981811 0.794887C0.162999 0.63863 0.257998 0.49669 0.37774 0.377194C0.88149 -0.11364 1.70816 -0.126556 2.21191 0.377194V0.377194Z" fill="#B0D2FF"/>
</svg>
