<svg width="23" height="23" viewBox="0 0 23 23" fill="none" xmlns="http://www.w3.org/2000/svg">
    <path opacity="0.7" d="M21.7742 20.0284L17.594 15.8604C18.9427 14.1421 19.6745 12.0203 19.6718 9.83591C19.6718 7.89055 19.095 5.98888 18.0142 4.37137C16.9334 2.75387 15.3972 1.49317 13.6 0.748718C11.8027 0.00426171 9.825 -0.190522 7.91702 0.188999C6.00904 0.568519 4.25645 1.5053 2.88088 2.88088C1.5053 4.25645 0.568519 6.00904 0.188999 7.91702C-0.190522 9.825 0.00426171 11.8027 0.748718 13.6C1.49317 15.3972 2.75387 16.9334 4.37137 18.0142C5.98888 19.095 7.89055 19.6718 9.83591 19.6718C12.0203 19.6745 14.1421 18.9427 15.8604 17.594L20.0284 21.7742C20.1427 21.8895 20.2787 21.9809 20.4285 22.0434C20.5783 22.1058 20.739 22.1379 20.9013 22.1379C21.0636 22.1379 21.2243 22.1058 21.3741 22.0434C21.524 21.9809 21.6599 21.8895 21.7742 21.7742C21.8895 21.6599 21.9809 21.524 22.0434 21.3741C22.1058 21.2243 22.1379 21.0636 22.1379 20.9013C22.1379 20.739 22.1058 20.5783 22.0434 20.4285C21.9809 20.2787 21.8895 20.1427 21.7742 20.0284ZM2.45898 9.83591C2.45898 8.37689 2.89163 6.95064 3.70222 5.73751C4.51281 4.52438 5.66493 3.57886 7.01288 3.02052C8.36084 2.46217 9.8441 2.31609 11.2751 2.60073C12.7061 2.88537 14.0205 3.58795 15.0522 4.61963C16.0839 5.65132 16.7865 6.96576 17.0711 8.39674C17.3557 9.82773 17.2097 11.311 16.6513 12.6589C16.093 14.0069 15.1474 15.159 13.9343 15.9696C12.7212 16.7802 11.2949 17.2128 9.83591 17.2128C7.87943 17.2128 6.00308 16.4356 4.61963 15.0522C3.23619 13.6687 2.45898 11.7924 2.45898 9.83591Z" fill="#2F80ED"/>
</svg>
